<svg xmlns="http://www.w3.org/2000/svg" width="16" height="16" viewBox="0 0 16 16" fill="none">
    <path
        d="M11.7337 6.3202L12.9603 4.2002C13.067 3.99354 12.987 3.7402 12.787 3.63354C12.6931 3.58459 12.5843 3.57249 12.4819 3.59963C12.3795 3.62676 12.291 3.69116 12.2337 3.7802L10.9803 5.9402C10.0376 5.54085 9.02417 5.33506 8.00032 5.33506C6.97648 5.33506 5.96308 5.54085 5.02033 5.9402L3.76699 3.7802C3.70639 3.68721 3.61208 3.62135 3.5039 3.59648C3.39572 3.57162 3.28212 3.58968 3.18699 3.64687C3.00033 3.76687 2.94033 4.00687 3.04033 4.2002L4.26699 6.3202C3.24923 6.90161 2.38912 7.72313 1.76165 8.71315C1.13417 9.70317 0.758363 10.8316 0.666992 12.0002H15.3337C15.2423 10.8316 14.8665 9.70317 14.239 8.71315C13.6115 7.72313 12.7514 6.90161 11.7337 6.3202ZM4.66699 10.1669C4.44598 10.1669 4.23402 10.0791 4.07774 9.92279C3.92146 9.76651 3.83366 9.55455 3.83366 9.33354C3.83366 9.11252 3.92146 8.90056 4.07774 8.74428C4.23402 8.588 4.44598 8.5002 4.66699 8.5002C4.88801 8.5002 5.09997 8.588 5.25625 8.74428C5.41253 8.90056 5.50032 9.11252 5.50032 9.33354C5.50032 9.55455 5.41253 9.76651 5.25625 9.92279C5.09997 10.0791 4.88801 10.1669 4.66699 10.1669ZM11.3337 10.1669C11.1126 10.1669 10.9007 10.0791 10.7444 9.92279C10.5881 9.76651 10.5003 9.55455 10.5003 9.33354C10.5003 9.11252 10.5881 8.90056 10.7444 8.74428C10.9007 8.588 11.1126 8.5002 11.3337 8.5002C11.5547 8.5002 11.7666 8.588 11.9229 8.74428C12.0792 8.90056 12.167 9.11252 12.167 9.33354C12.167 9.55455 12.0792 9.76651 11.9229 9.92279C11.7666 10.0791 11.5547 10.1669 11.3337 10.1669Z"
        fill="#FFFFFF" />
</svg>