<svg xmlns="http://www.w3.org/2000/svg" width="16" height="16" viewBox="0 0 16 16" fill="none">
    <path
        d="M4.66699 12.6668H11.3337C11.2892 12.1224 11.1225 11.6224 10.8337 11.1668C10.5448 10.7113 10.167 10.3502 9.70033 10.0835L10.3337 8.95016C10.3559 8.90572 10.3614 8.85572 10.3503 8.80016C10.3392 8.74461 10.3059 8.70572 10.2503 8.6835C10.2059 8.66127 10.1585 8.65572 10.1083 8.66683C10.0581 8.67794 10.0221 8.70572 10.0003 8.75016L9.35032 9.91683C9.1281 9.82794 8.90588 9.75861 8.68366 9.70883C8.46144 9.65905 8.23366 9.63394 8.00033 9.6335C7.76699 9.63305 7.53921 9.65816 7.31699 9.70883C7.09477 9.7595 6.87255 9.82883 6.65033 9.91683L6.00033 8.75016C5.9781 8.69461 5.9421 8.66683 5.89233 8.66683C5.84255 8.66683 5.78966 8.67794 5.73366 8.70016L5.66699 8.95016L6.30033 10.0835C5.83366 10.3502 5.45588 10.7113 5.16699 11.1668C4.8781 11.6224 4.71144 12.1224 4.66699 12.6668ZM6.50033 11.6668C6.41144 11.6668 6.33366 11.6335 6.26699 11.5668C6.20033 11.5002 6.16699 11.4224 6.16699 11.3335C6.16699 11.2446 6.20033 11.1668 6.26699 11.1002C6.33366 11.0335 6.41144 11.0002 6.50033 11.0002C6.58921 11.0002 6.66699 11.0335 6.73366 11.1002C6.80033 11.1668 6.83366 11.2446 6.83366 11.3335C6.83366 11.4224 6.80033 11.5002 6.73366 11.5668C6.66699 11.6335 6.58921 11.6668 6.50033 11.6668ZM9.50033 11.6668C9.41144 11.6668 9.33366 11.6335 9.26699 11.5668C9.20032 11.5002 9.16699 11.4224 9.16699 11.3335C9.16699 11.2446 9.20032 11.1668 9.26699 11.1002C9.33366 11.0335 9.41144 11.0002 9.50033 11.0002C9.58921 11.0002 9.66699 11.0335 9.73366 11.1002C9.80033 11.1668 9.83366 11.2446 9.83366 11.3335C9.83366 11.4224 9.80033 11.5002 9.73366 11.5668C9.66699 11.6335 9.58921 11.6668 9.50033 11.6668ZM4.00033 14.6668C3.63366 14.6668 3.31988 14.5364 3.05899 14.2755C2.7981 14.0146 2.66744 13.7006 2.66699 13.3335V2.66683C2.66699 2.30016 2.79766 1.98638 3.05899 1.7255C3.32033 1.46461 3.6341 1.33394 4.00033 1.3335H8.78366C8.96144 1.3335 9.13099 1.36683 9.29232 1.4335C9.45366 1.50016 9.59521 1.59461 9.71699 1.71683L12.9503 4.95016C13.0725 5.07238 13.167 5.21416 13.2337 5.3755C13.3003 5.53683 13.3337 5.70616 13.3337 5.8835V13.3335C13.3337 13.7002 13.2032 14.0142 12.9423 14.2755C12.6814 14.5368 12.3674 14.6673 12.0003 14.6668H4.00033ZM8.66699 5.3335C8.66699 5.52238 8.73099 5.68083 8.85899 5.80883C8.98699 5.93683 9.14521 6.00061 9.33366 6.00016H12.0003L8.66699 2.66683V5.3335Z"
        fill="#FFFFFF" fill-opacity="1" />
</svg>