<svg xmlns="http://www.w3.org/2000/svg" width="16" height="17" viewBox="0 0 16 17" fill="none">
  <path fill-rule="evenodd" clip-rule="evenodd" d="M3.33366 1.1665C2.62641 1.1665 1.94814 1.44746 1.44804 1.94755C0.947944 2.44765 0.666992 3.12593 0.666992 3.83317V13.1665C0.666992 13.8737 0.947944 14.552 1.44804 15.0521C1.94814 15.5522 2.62641 15.8332 3.33366 15.8332H12.667C13.3742 15.8332 14.0525 15.5522 14.5526 15.0521C15.0527 14.552 15.3337 13.8737 15.3337 13.1665V3.83317C15.3337 3.12593 15.0527 2.44765 14.5526 1.94755C14.0525 1.44746 13.3742 1.1665 12.667 1.1665H3.33366ZM13.1383 5.63784C13.2598 5.5121 13.327 5.3437 13.3254 5.1689C13.3239 4.99411 13.2538 4.8269 13.1302 4.70329C13.0066 4.57969 12.8394 4.50957 12.6646 4.50805C12.4898 4.50654 12.3214 4.57373 12.1957 4.69517L6.00033 10.8905L3.80499 8.69517C3.67926 8.57373 3.51086 8.50654 3.33606 8.50805C3.16126 8.50957 2.99405 8.57969 2.87045 8.70329C2.74684 8.8269 2.67673 8.99411 2.67521 9.1689C2.67369 9.3437 2.74089 9.5121 2.86233 9.63784L5.52899 12.3045C5.65401 12.4295 5.82355 12.4997 6.00033 12.4997C6.1771 12.4997 6.34664 12.4295 6.47166 12.3045L13.1383 5.63784Z" fill="#FEFFFD"/>
</svg>