<svg xmlns="http://www.w3.org/2000/svg" width="20" height="20" viewBox="0 0 20 20" fill="none">
  <path d="M15.834 13.333V15.833M15.834 15.833V18.333M15.834 15.833H13.334M15.834 15.833H18.334" stroke="#A7DC22" stroke-width="1.66667" stroke-linecap="round" stroke-linejoin="round"/>
  <path fill-rule="evenodd" clip-rule="evenodd" d="M10.0003 1.6665C5.39783 1.6665 1.66699 5.39734 1.66699 9.99984C1.66699 14.6023 5.39783 18.3332 10.0003 18.3332C10.4898 18.3332 10.9675 18.2923 11.4337 18.2107C11.0394 17.4803 10.8332 16.6632 10.8337 15.8332C10.8337 14.3782 11.4553 13.0682 12.447 12.1548L10.5487 11.2057C10.1335 10.998 9.78433 10.6789 9.5403 10.284C9.29627 9.88908 9.16701 9.43405 9.16699 8.96984V5.83317C9.16699 5.61216 9.25479 5.4002 9.41107 5.24392C9.56735 5.08763 9.77931 4.99984 10.0003 4.99984C10.2213 4.99984 10.4333 5.08763 10.5896 5.24392C10.7459 5.4002 10.8337 5.61216 10.8337 5.83317V8.96984C10.8337 9.12456 10.8769 9.2762 10.9583 9.40778C11.0397 9.53936 11.1561 9.64568 11.2945 9.71484L13.7062 10.9215C13.8303 10.9832 13.932 11.0715 14.0078 11.1765C14.5896 10.949 15.2089 10.8325 15.8337 10.8332C16.6945 10.8332 17.5037 11.0498 18.2112 11.4332C18.2932 10.9598 18.3342 10.4803 18.3337 9.99984C18.3337 5.39734 14.6028 1.6665 10.0003 1.6665Z" fill="#A7DC22"/>
</svg>