<svg width="40" height="40" viewBox="0 0 40 40" fill="none" xmlns="http://www.w3.org/2000/svg">
<g id="dave">
<g id="Vector">
<path fill-rule="evenodd" clip-rule="evenodd" d="M34.0068 16.1302C36.6644 13.4726 36.6644 9.16389 34.0068 6.50634C31.3493 3.8488 27.0406 3.8488 24.383 6.50634L7.3428 23.5465C6.61503 24.2743 6.09186 25.181 5.82599 26.1753L4.10883 32.597C3.49083 34.9082 5.60502 37.0224 7.91618 36.4044L14.3379 34.6872C15.3322 34.4213 16.2389 33.8982 16.9666 33.1704L34.0068 16.1302ZM7.82311 26.7093L6.10596 33.131C5.89881 33.9057 6.60747 34.6144 7.38215 34.4072L13.8038 32.6901C14.4472 32.518 15.0339 32.1795 15.5048 31.7086L32.545 14.6684C34.3953 12.8182 34.3953 9.81836 32.545 7.96814C30.6948 6.11792 27.695 6.11792 25.8448 7.96814L8.8046 25.0083C8.33368 25.4793 7.99515 26.066 7.82311 26.7093Z" fill="black"/>
<path d="M6.10596 33.131L7.82311 26.7093C7.99515 26.066 8.33368 25.4793 8.8046 25.0083L25.8448 7.96814C27.695 6.11792 30.6948 6.11792 32.545 7.96814C34.3953 9.81836 34.3953 12.8182 32.545 14.6684L15.5048 31.7086C15.0339 32.1795 14.4472 32.518 13.8038 32.6901L7.38215 34.4072C6.60747 34.6144 5.89881 33.9057 6.10596 33.131Z" fill="white"/>
</g>
<g id="Vector_2">
<path fill-rule="evenodd" clip-rule="evenodd" d="M18.3058 22.7336C18.275 22.8575 18.2452 22.968 18.2109 23.0711C18.1266 23.3243 18.1499 23.5541 18.1686 23.6785C18.1785 23.7446 18.1913 23.8054 18.1994 23.8432C18.2092 23.8893 18.2125 23.9053 18.2148 23.9188C18.2199 23.9493 18.2231 23.9832 18.2301 24.0556C18.2309 24.0643 18.2318 24.0736 18.2328 24.0835C18.2402 24.16 18.2518 24.2764 18.2769 24.398C18.328 24.6453 18.4592 25.0328 18.8584 25.2916C19.0327 25.4046 19.2353 25.4717 19.4592 25.4692C19.6412 25.4672 19.7941 25.4169 19.8558 25.3966L19.86 25.3953C19.8625 25.3944 19.8742 25.3909 19.9029 25.3869C19.9342 25.3824 19.9717 25.3791 20.0343 25.3746C20.4698 25.3434 20.7598 25.1078 20.9319 24.9089C21.0464 24.7766 21.1637 24.5844 21.2063 24.5145C21.2135 24.5027 21.2186 24.4944 21.2211 24.4905C21.2876 24.3885 21.3761 24.2925 21.5274 24.1283C21.5369 24.118 21.5466 24.1075 21.5565 24.0967C21.7035 23.9371 21.9143 23.7062 22.0718 23.4187C22.077 23.4094 22.0917 23.3861 22.1426 23.3302C22.1638 23.307 22.1847 23.2851 22.2123 23.256C22.2198 23.2482 22.2278 23.2398 22.2364 23.2308C22.2732 23.192 22.3194 23.143 22.3665 23.0886C22.4275 23.0183 22.4899 22.9515 22.564 22.8721C22.5796 22.8554 22.5957 22.8381 22.6124 22.8201C22.7031 22.7227 22.8084 22.6081 22.9107 22.4814C23.195 22.129 23.1398 21.6128 22.7874 21.3285C22.4351 21.0441 21.9189 21.0993 21.6345 21.4517C21.5713 21.53 21.4999 21.6087 21.4122 21.7028C21.3991 21.717 21.3854 21.7316 21.3712 21.7468C21.2968 21.8264 21.2102 21.9192 21.1275 22.0145C21.091 22.0567 21.0721 22.0761 21.0463 22.1027C21.0215 22.1282 20.9902 22.1603 20.9308 22.2255C20.8441 22.3206 20.73 22.4552 20.6337 22.6309C20.5837 22.7222 20.5023 22.8209 20.3503 22.9859C20.337 23.0003 20.3229 23.0156 20.3081 23.0316C20.1782 23.1716 19.9939 23.3703 19.8474 23.5952C19.8408 23.6053 19.8343 23.6153 19.8281 23.6252C19.8242 23.6032 19.8202 23.583 19.8166 23.5656L19.8034 23.5026C19.802 23.4963 19.8008 23.4906 19.7998 23.4855C19.8587 23.293 19.9044 23.102 19.9426 22.942L19.9432 22.9396C19.9691 22.8312 20.0208 22.7055 20.1066 22.5383C20.1468 22.46 20.1896 22.3816 20.2382 22.2926L20.2471 22.2763C20.2973 22.1843 20.3539 22.0803 20.4074 21.9737C20.451 21.8869 20.4887 21.7999 20.5164 21.736C20.5188 21.7305 20.5211 21.7252 20.5233 21.72C20.5549 21.6472 20.5757 21.6009 20.5966 21.5607C20.6001 21.5541 20.6052 21.5446 20.6115 21.5328C20.6445 21.4716 20.7117 21.3469 20.7584 21.2306C20.8257 21.0627 20.8428 20.9124 20.8507 20.8353L20.8555 20.7852L20.8583 20.7566M20.8583 20.7566C20.8583 20.7566 20.8593 20.7526 20.8599 20.7504C20.8653 20.7293 20.8741 20.6943 20.882 20.6567L20.8825 20.6545C20.8865 20.6362 20.9077 20.5382 20.9063 20.43C20.9059 20.3974 20.9036 20.3184 20.8781 20.2226C20.8608 20.1577 20.7828 19.8845 20.4889 19.7175C20.1352 19.5163 19.8074 19.6445 19.6835 19.7131C19.5649 19.7786 19.4909 19.8583 19.4641 19.8883C19.4641 19.8883 19.4594 19.8925 19.4535 19.8973C19.4464 19.9031 19.4369 19.9106 19.4227 19.9213L19.37 19.9607C19.2382 20.0588 19.1336 20.1649 19.0604 20.2422C19.0247 20.2799 18.9988 20.3079 18.9773 20.3311C18.9446 20.3664 18.9221 20.3908 18.8907 20.4215C18.7451 20.5638 18.6479 20.7267 18.6114 20.7879C18.6073 20.7946 18.6041 20.8001 18.6015 20.8043C18.5987 20.8089 18.5961 20.813 18.5939 20.8165C18.5668 20.837 18.5409 20.8571 18.5191 20.8739C18.5118 20.8796 18.5049 20.8849 18.4987 20.8897C18.4619 20.918 18.4367 20.937 18.4144 20.9525C18.374 20.9807 18.3584 20.986 18.3584 20.986C18.3242 20.9977 18.2783 21.0122 18.2245 21.0292C18.0276 21.0914 17.7233 21.1875 17.4881 21.3063C17.4126 21.3444 17.3231 21.3986 17.2417 21.4504C17.274 21.3367 17.2882 21.2355 17.2964 21.1748C17.2992 21.1542 17.3013 21.1381 17.303 21.1251C17.3193 21.0916 17.3422 21.0412 17.3625 20.9789C17.4064 20.8441 17.4194 20.721 17.4232 20.6299C17.4268 20.5414 17.4224 20.4598 17.4198 20.4137C17.4196 20.4099 17.4194 20.4064 17.4193 20.403C17.4173 20.3667 17.4163 20.3483 17.4159 20.3351C17.4444 20.2142 17.4736 20.1134 17.5072 19.9969C17.5318 19.9119 17.5588 19.8186 17.5897 19.7031C17.6574 19.45 17.7248 19.149 17.7357 18.8071C17.7502 18.3545 17.395 17.9759 16.9424 17.9615C16.4899 17.947 16.1113 18.3022 16.0968 18.7548C16.0917 18.9138 16.0602 19.0754 16.0056 19.2793C15.9913 19.3329 15.9722 19.3997 15.9509 19.4741C15.905 19.6346 15.8491 19.8301 15.8098 20.0024C15.7815 20.1261 15.7762 20.2369 15.7759 20.3169C15.7757 20.3838 15.7796 20.4512 15.7818 20.4897C15.782 20.4932 15.7822 20.4965 15.7823 20.4995C15.7578 20.5536 15.7277 20.6311 15.7084 20.7217C15.697 20.7756 15.6893 20.8244 15.6838 20.8629C15.6805 20.8858 15.6765 20.9162 15.6738 20.9371C15.6727 20.9452 15.6719 20.9519 15.6713 20.9561C15.667 20.9882 15.6645 21.001 15.6639 21.0039C15.6569 21.0268 15.6484 21.0522 15.6348 21.0924L15.6339 21.095C15.6213 21.1323 15.6039 21.1835 15.5877 21.2375C15.5548 21.347 15.5128 21.5098 15.5092 21.7004C15.5088 21.7182 15.5079 21.7388 15.5062 21.7747C15.5059 21.7827 15.5055 21.7915 15.505 21.8012C15.5029 21.8473 15.5003 21.9085 15.4999 21.9732C15.4992 22.0772 15.5008 22.2966 15.5767 22.5116C15.7332 22.955 16.0993 23.1289 16.3065 23.1943C16.4098 23.2269 16.505 23.2435 16.5642 23.253C16.6111 23.2605 16.6311 23.2632 16.6442 23.265C16.6558 23.2666 16.6621 23.2675 16.6771 23.2703C16.6835 23.2715 16.6887 23.2726 16.7008 23.2752C16.7088 23.2769 16.7199 23.2792 16.7363 23.2827C16.7684 23.2895 16.8173 23.2995 16.8719 23.3077C16.957 23.3204 17.1718 23.3493 17.406 23.2762C17.621 23.2091 17.7654 23.0951 17.8396 23.0327C17.856 23.019 17.8714 23.0055 17.8811 22.9971L17.8829 22.9955L17.9006 22.9802C17.9937 22.9213 18.05 22.8825 18.0924 22.8533C18.1444 22.8175 18.1753 22.7962 18.2274 22.7699C18.2535 22.7567 18.2794 22.7448 18.3058 22.7336" fill="black"/>
</g>
<g id="Vector 23 (Stroke)">
<path fill-rule="evenodd" clip-rule="evenodd" d="M32.0669 15.9193C31.9306 15.8859 31.7606 15.8413 31.5852 15.7758C31.4746 15.7345 31.3767 15.6967 31.2849 15.6613C31.1169 15.5964 30.9699 15.5397 30.8049 15.4844C30.7152 15.4544 30.638 15.421 30.583 15.3963C30.5573 15.3847 30.5322 15.3731 30.513 15.3641L30.5093 15.3624C30.4878 15.3524 30.4727 15.3455 30.4589 15.3393C30.4547 15.3374 30.451 15.3358 30.4477 15.3343C30.304 15.3175 30.2057 15.3025 30.1256 15.2903C30.011 15.2728 29.9338 15.261 29.8144 15.2577C29.7156 15.255 29.63 15.2429 29.5683 15.2324C29.5169 15.2237 29.4655 15.2128 29.4366 15.2068C29.4327 15.2059 29.4293 15.2052 29.4263 15.2046C29.4199 15.2033 29.4145 15.2021 29.4098 15.2012C29.2544 15.208 29.1661 15.2217 29.0589 15.2541C28.8627 15.3134 28.6969 15.4005 28.609 15.4743C28.5844 15.4949 28.5627 15.5152 28.5204 15.5548C28.5091 15.5655 28.4962 15.5775 28.4814 15.5914C28.423 15.6458 28.333 15.729 28.2253 15.8093C28.1185 15.8891 28.007 15.9514 27.9578 15.9789C27.9528 15.9817 27.9484 15.9841 27.9447 15.9862C27.9421 15.9877 27.9397 15.989 27.9374 15.9903C27.9052 16.0319 27.8348 16.1223 27.7309 16.2174C27.7086 16.2539 27.6758 16.3054 27.6329 16.3619C27.5716 16.4427 27.552 16.4892 27.505 16.6011C27.4722 16.6791 27.4261 16.7889 27.3431 16.9642C27.3029 17.0492 27.27 17.117 27.2429 17.1728C27.165 17.3335 27.1351 17.3953 27.1155 17.4838C27.0889 17.6043 27.0759 17.6933 27.0592 17.8085C27.0467 17.8944 27.0321 17.9948 27.0081 18.1338C26.9981 18.1918 26.9936 18.2693 26.9916 18.4175C26.9914 18.4325 26.9912 18.4487 26.991 18.4661C26.9901 18.5525 26.9889 18.6663 26.9818 18.7875C26.9908 18.8041 27.0015 18.8239 27.0098 18.8395C27.0386 18.8937 27.0837 18.9806 27.1241 19.0842C27.1277 19.0875 27.1322 19.0917 27.1379 19.0968C27.1679 19.1234 27.2014 19.1498 27.2688 19.203L27.2776 19.2099C27.342 19.2608 27.4338 19.3335 27.5284 19.4204C27.7287 19.6046 27.8762 19.7995 27.9834 19.9468C27.9893 19.9526 28.0035 19.9662 28.0308 19.9907C28.0346 19.9941 28.039 19.9981 28.044 20.0026C28.0699 20.0257 28.1101 20.0617 28.1476 20.0972C28.1956 20.1428 28.2559 20.2032 28.3175 20.2769C28.4202 20.3999 28.4952 20.4951 28.5583 20.5752C28.6618 20.7066 28.7336 20.7978 28.8442 20.9057C28.9004 20.9607 28.9458 21.0121 28.9744 21.045L28.9823 21.0541C29.0009 21.0615 29.0211 21.0691 29.0461 21.0785C29.0908 21.0953 29.1509 21.1179 29.2448 21.1558C29.2948 21.176 29.3367 21.1884 29.4219 21.2135C29.4492 21.2216 29.481 21.231 29.519 21.2423C29.6537 21.2827 29.8528 21.3456 30.0647 21.4605C30.3046 21.5905 30.5406 21.7366 30.7463 21.8639C30.7636 21.8746 30.7806 21.8852 30.7975 21.8956C30.8563 21.8938 30.9397 21.8926 31.0351 21.8994C31.1753 21.9092 31.2863 21.9194 31.3838 21.9284C31.5116 21.9402 31.6163 21.9499 31.733 21.9537C31.7456 21.9488 31.7612 21.9426 31.7814 21.9344L31.8387 21.9109C31.8597 21.9023 31.8847 21.8922 31.9111 21.882C32.3421 21.7152 32.7658 21.6686 33.0773 21.6392C33.1288 21.6343 33.177 21.6299 33.2225 21.6257C33.4866 21.6015 33.6578 21.5857 33.8272 21.5426C33.8721 21.5311 33.916 21.5209 33.9527 21.5125C33.9658 21.5095 33.9777 21.5068 33.9889 21.5043C34.0123 21.4989 34.0327 21.4943 34.055 21.489C34.0942 21.4798 34.1242 21.4722 34.148 21.4655C34.1569 21.4542 34.1655 21.4432 34.1736 21.4329C34.1886 21.4139 34.2017 21.3972 34.2116 21.3846C34.2515 21.3332 34.2776 21.298 34.2975 21.2684C34.3163 21.2402 34.3251 21.2237 34.3291 21.215C34.3326 21.2076 34.3336 21.2035 34.3336 21.2035C34.3363 21.192 34.3389 21.1776 34.3414 21.1494C34.3429 21.1338 34.3442 21.1148 34.3458 21.088C34.3468 21.0701 34.3476 21.0564 34.3484 21.0405C34.3491 21.0271 34.3499 21.0121 34.3511 20.9916C34.3629 20.7794 34.4181 20.5989 34.4537 20.4927C34.4718 20.4387 34.4908 20.3874 34.504 20.3517L34.5055 20.3475C34.5208 20.3062 34.5287 20.2846 34.5346 20.2668C34.5545 20.2071 34.5749 20.1507 34.5904 20.1079L34.5927 20.1017C34.6099 20.054 34.6211 20.0228 34.6305 19.9942C34.6438 19.9536 34.647 19.9371 34.6475 19.9339C34.6594 19.8074 34.6862 19.7012 34.7087 19.6261C34.7058 19.6197 34.7028 19.6131 34.6997 19.6064C34.6225 19.4369 34.4999 19.168 34.4247 18.8934C34.4199 18.8853 34.413 18.8741 34.4035 18.8594C34.3924 18.8423 34.3807 18.8246 34.3646 18.8005C34.3499 18.7782 34.3309 18.7496 34.3118 18.7201C34.2741 18.6616 34.2234 18.5799 34.1758 18.4844C34.1523 18.4372 34.1309 18.39 34.1164 18.3582L34.1127 18.3501C34.0991 18.3202 34.0898 18.2998 34.0808 18.2807L34.0704 18.271C34.0513 18.2527 34.0254 18.2274 33.9968 18.1973C33.7633 17.9509 33.6059 17.6723 33.4972 17.4566C33.4413 17.3455 33.391 17.236 33.3489 17.1437C33.3441 17.1332 33.3394 17.1229 33.3348 17.1128C33.2969 17.0295 33.2666 16.963 33.2361 16.9005C33.196 16.8184 33.168 16.7335 33.1516 16.6479C33.0043 16.5098 32.9099 16.3613 32.8648 16.2887C32.8541 16.2715 32.8408 16.2494 32.8293 16.2303C32.7932 16.2036 32.7426 16.1645 32.6871 16.1138C32.6697 16.098 32.6187 16.0597 32.4198 16.0058C32.3506 15.987 32.2905 15.9727 32.2163 15.9551C32.1729 15.9449 32.1247 15.9334 32.0669 15.9193ZM35.3298 16.6136C35.3879 16.7216 35.4299 16.7796 35.4582 16.8098C35.4582 16.8098 35.4604 16.8121 35.4629 16.8144L35.499 16.8485C35.5332 16.881 35.5972 16.9427 35.6638 17.0255C35.7803 17.1705 35.856 17.3225 35.8952 17.4041C35.938 17.4933 35.9463 17.5135 35.9523 17.5279C35.9572 17.5397 35.9604 17.5476 35.9797 17.5862C35.9797 17.5862 35.9855 17.5973 36.0055 17.6284C36.016 17.6446 36.0274 17.6619 36.0431 17.6855L36.0455 17.6891C36.0596 17.7103 36.0773 17.737 36.0952 17.7646C36.1632 17.8697 36.2971 18.081 36.3661 18.3532C36.3915 18.4535 36.4344 18.549 36.5143 18.7271C36.5333 18.7695 36.5545 18.8166 36.5779 18.8695C36.5819 18.8785 36.5854 18.8858 36.5926 18.9013C36.595 18.9064 36.5978 18.9124 36.6012 18.9196C36.6123 18.9433 36.6307 18.983 36.6493 19.0282C36.689 19.1251 36.7362 19.2628 36.7559 19.4352C36.7927 19.7585 36.7033 20.0184 36.6693 20.1171L36.6686 20.119C36.6568 20.1535 36.6508 20.1701 36.6473 20.1798C36.6105 20.4652 36.5027 20.7528 36.4611 20.8636C36.4542 20.8821 36.4491 20.8957 36.4465 20.9035C36.4291 20.9558 36.4102 21.0067 36.3973 21.0416L36.3955 21.0466C36.3805 21.0871 36.3715 21.1115 36.3641 21.1337C36.3629 21.1373 36.3618 21.1404 36.3609 21.1432C36.3552 21.2574 36.3454 21.4488 36.2961 21.6606C36.1791 22.1629 35.8642 22.5506 35.72 22.7282C35.6997 22.7531 35.6829 22.7739 35.6704 22.7903C35.4019 23.1421 35.0402 23.2931 34.8247 23.3651C34.6707 23.4166 34.4449 23.4678 34.3582 23.4875C34.341 23.4914 34.3293 23.4941 34.3247 23.4953C33.9859 23.5816 33.6347 23.6126 33.3795 23.6351C33.3395 23.6387 33.3018 23.642 33.267 23.6453C32.971 23.6732 32.7893 23.7028 32.6384 23.7612C32.622 23.7676 32.6075 23.7735 32.5843 23.7831C32.5729 23.7877 32.5595 23.7932 32.5428 23.8001C32.5 23.8175 32.4407 23.8414 32.3753 23.8643C32.2571 23.9058 32.0427 23.9728 31.7893 23.9703C31.5615 23.9681 31.2962 23.9444 31.0936 23.9263C31.0159 23.9193 30.9474 23.9132 30.8939 23.9095C30.8939 23.9095 30.8914 23.9093 30.8842 23.9093C30.8765 23.9093 30.8657 23.9095 30.847 23.9101C30.8438 23.9103 30.8393 23.9104 30.8336 23.9107C30.7994 23.9121 30.7235 23.9153 30.655 23.9142C30.4426 23.9108 30.1645 23.8706 29.8705 23.6911C29.7921 23.6433 29.7191 23.5982 29.6496 23.5551C29.4559 23.4353 29.2887 23.3319 29.1045 23.232C29.0809 23.2193 29.0441 23.2036 28.9405 23.1726C28.9276 23.1687 28.9122 23.1642 28.8946 23.1591C28.7995 23.1314 28.6415 23.0854 28.4903 23.0243C28.4782 23.0194 28.4587 23.012 28.4337 23.0025C28.3329 22.9641 28.1432 22.8919 27.996 22.8177C27.7717 22.7047 27.6247 22.5577 27.5409 22.4663C27.5121 22.4348 27.4787 22.396 27.4623 22.377C27.4589 22.373 27.4562 22.3699 27.4544 22.3679C27.441 22.3525 27.4353 22.3464 27.4353 22.3464C27.2305 22.1462 27.0274 21.8901 26.886 21.7119C26.8406 21.6546 26.8016 21.6054 26.7709 21.5686C26.7709 21.5686 26.7618 21.5595 26.6845 21.4901L26.6806 21.4866C26.6151 21.4278 26.481 21.3074 26.3625 21.1441C26.2673 21.0129 26.2145 20.9497 26.1645 20.9038C26.1312 20.8732 26.0925 20.8416 26.0294 20.7918C26.0239 20.7875 26.018 20.7829 26.0118 20.778C25.9569 20.7348 25.8767 20.6717 25.8 20.6036C25.6121 20.4367 25.3874 20.1919 25.2477 19.8189C25.246 19.8154 25.241 19.805 25.2303 19.7849C25.2283 19.7811 25.2247 19.7745 25.22 19.7658C25.2011 19.7309 25.1641 19.6626 25.1374 19.6085C25.0635 19.4587 24.9208 19.1414 24.9649 18.7372C24.9732 18.6615 24.9742 18.5832 24.976 18.4443C24.9762 18.4271 24.9764 18.4091 24.9767 18.39C24.9787 18.2408 24.9827 18.0214 25.0224 17.7913C25.0294 17.7505 25.0384 17.6916 25.0488 17.6225C25.0742 17.4547 25.1087 17.2263 25.148 17.0488C25.2246 16.7022 25.3857 16.3775 25.4789 16.1896C25.4957 16.1558 25.5103 16.1264 25.5217 16.1022C25.5321 16.0804 25.5463 16.0468 25.5644 16.0042C25.6443 15.8159 25.7986 15.4522 26.0145 15.1614L26.0247 15.144C26.0316 15.1323 26.0429 15.113 26.0559 15.0918C26.1068 15.0092 26.1996 14.8709 26.3572 14.7399L26.3581 14.7387C26.3738 14.7184 26.4082 14.6739 26.4457 14.6304C26.4916 14.5773 26.5555 14.5094 26.6393 14.4408C26.7646 14.3384 26.8893 14.268 26.9494 14.2341L26.954 14.2315C27.0047 14.2029 27.0207 14.1934 27.0235 14.1918C27.0369 14.1815 27.0592 14.1624 27.1066 14.1181C27.1127 14.1124 27.1198 14.1058 27.1276 14.0984C27.172 14.0567 27.2423 13.9907 27.3135 13.9309C27.6742 13.6281 28.1124 13.4351 28.4758 13.3253C28.825 13.2197 29.112 13.1945 29.3939 13.1853C29.5051 13.1817 29.6016 13.1917 29.6721 13.2018C29.741 13.2118 29.8034 13.2248 29.8384 13.2321L29.8472 13.234C29.8746 13.2397 29.888 13.2425 29.8976 13.2443C30.1223 13.2531 30.404 13.2932 30.5814 13.3185C30.6417 13.3271 30.6899 13.3339 30.7198 13.3373C30.9731 13.3656 31.1753 13.4522 31.2822 13.5001C31.3103 13.5127 31.3372 13.5251 31.3575 13.5346C31.3799 13.5449 31.3954 13.5522 31.4102 13.5588C31.4364 13.5706 31.4455 13.5739 31.4455 13.5739C31.6524 13.6432 31.8721 13.7279 32.0643 13.8019C32.1457 13.8332 32.2221 13.8626 32.2904 13.8881C32.3967 13.9278 32.4711 13.9449 32.5843 13.9708C32.6716 13.9908 32.7819 14.0161 32.9478 14.0611C33.2429 14.1412 33.6618 14.2807 34.0332 14.6143L34.0511 14.6273C34.0614 14.6346 34.0788 14.6472 34.0968 14.6605C34.1786 14.7214 34.3131 14.8293 34.4366 15.0042C34.4759 15.0599 34.5082 15.1123 34.5292 15.147L34.5578 15.1945L34.5721 15.2181C34.7498 15.3918 34.8734 15.5731 34.9612 15.7146C35.0033 15.7823 35.0429 15.8508 35.0741 15.9045C35.0775 15.9104 35.0808 15.9161 35.084 15.9216C35.1196 15.9829 35.1458 16.0275 35.1715 16.0677C35.2796 16.2371 35.3307 16.4265 35.3298 16.6136Z" fill="black"/>
<path d="M31.5852 15.7758C31.7606 15.8413 31.9306 15.8859 32.0669 15.9193C32.1247 15.9334 32.1729 15.9449 32.2163 15.9551C32.2905 15.9727 32.3506 15.987 32.4198 16.0058C32.6187 16.0597 32.6697 16.098 32.6871 16.1138C32.7426 16.1645 32.7932 16.2036 32.8293 16.2303C32.8408 16.2494 32.8541 16.2715 32.8648 16.2887C32.9099 16.3613 33.0043 16.5098 33.1516 16.6479C33.168 16.7335 33.196 16.8184 33.2361 16.9005C33.2666 16.963 33.2969 17.0295 33.3348 17.1128L33.3489 17.1437C33.391 17.236 33.4413 17.3455 33.4972 17.4566C33.6059 17.6723 33.7633 17.9509 33.9968 18.1973C34.0254 18.2274 34.0513 18.2527 34.0704 18.271L34.0808 18.2807C34.0898 18.2998 34.0991 18.3202 34.1127 18.3501L34.1164 18.3582C34.1309 18.39 34.1523 18.4372 34.1758 18.4844C34.2234 18.5799 34.2741 18.6616 34.3118 18.7201C34.3309 18.7496 34.3499 18.7782 34.3646 18.8005C34.3807 18.8246 34.3924 18.8423 34.4035 18.8594C34.413 18.8741 34.4199 18.8853 34.4247 18.8934C34.4999 19.168 34.6225 19.4369 34.6997 19.6064L34.7087 19.6261C34.6862 19.7012 34.6594 19.8074 34.6475 19.9339C34.647 19.9371 34.6438 19.9536 34.6305 19.9942C34.6211 20.0228 34.6099 20.054 34.5927 20.1017L34.5904 20.1079C34.5749 20.1507 34.5545 20.2071 34.5346 20.2668C34.5287 20.2846 34.5208 20.3062 34.5055 20.3475L34.504 20.3517C34.4908 20.3874 34.4718 20.4387 34.4537 20.4927C34.4181 20.5989 34.3629 20.7794 34.3511 20.9916L34.3484 21.0405L34.3458 21.088C34.3442 21.1148 34.3429 21.1338 34.3414 21.1494C34.3389 21.1776 34.3363 21.192 34.3336 21.2035C34.3336 21.2035 34.3326 21.2076 34.3291 21.215C34.3251 21.2237 34.3163 21.2402 34.2975 21.2684C34.2776 21.298 34.2515 21.3332 34.2116 21.3846L34.1736 21.4329L34.148 21.4655C34.1242 21.4722 34.0942 21.4798 34.055 21.489C34.0327 21.4943 34.0123 21.4989 33.9889 21.5043L33.9527 21.5125C33.916 21.5209 33.8721 21.5311 33.8272 21.5426C33.6578 21.5857 33.4866 21.6015 33.2225 21.6257L33.0773 21.6392C32.7658 21.6686 32.3421 21.7152 31.9111 21.882C31.8847 21.8922 31.8597 21.9023 31.8387 21.9109L31.7814 21.9344C31.7612 21.9426 31.7456 21.9488 31.733 21.9537C31.6163 21.9499 31.5116 21.9402 31.3838 21.9284C31.2863 21.9194 31.1753 21.9092 31.0351 21.8994C30.9397 21.8926 30.8563 21.8938 30.7975 21.8956L30.7463 21.8639C30.5406 21.7366 30.3046 21.5905 30.0647 21.4605C29.8528 21.3456 29.6537 21.2827 29.519 21.2423C29.481 21.231 29.4492 21.2216 29.4219 21.2135C29.3367 21.1884 29.2948 21.176 29.2448 21.1558C29.1509 21.1179 29.0908 21.0953 29.0461 21.0785C29.0211 21.0691 29.0009 21.0615 28.9823 21.0541L28.9744 21.045C28.9458 21.0121 28.9004 20.9607 28.8442 20.9057C28.7336 20.7978 28.6618 20.7066 28.5583 20.5752C28.4952 20.4951 28.4202 20.3999 28.3175 20.2769C28.2559 20.2032 28.1956 20.1428 28.1476 20.0972C28.1101 20.0617 28.0699 20.0257 28.044 20.0026L28.0308 19.9907C28.0035 19.9662 27.9893 19.9526 27.9834 19.9468C27.8762 19.7995 27.7287 19.6046 27.5284 19.4204C27.4338 19.3335 27.342 19.2608 27.2776 19.2099L27.2688 19.203C27.2014 19.1498 27.1679 19.1234 27.1379 19.0968C27.1322 19.0917 27.1277 19.0875 27.1241 19.0842C27.0837 18.9806 27.0386 18.8937 27.0098 18.8395L26.9818 18.7875C26.9889 18.6663 26.9901 18.5525 26.991 18.4661L26.9916 18.4175C26.9936 18.2693 26.9981 18.1918 27.0081 18.1338C27.0321 17.9948 27.0467 17.8944 27.0592 17.8085C27.0759 17.6933 27.0889 17.6043 27.1155 17.4838C27.1351 17.3953 27.165 17.3335 27.2429 17.1728C27.27 17.117 27.3029 17.0492 27.3431 16.9642C27.4261 16.7889 27.4722 16.6791 27.505 16.6011C27.552 16.4892 27.5716 16.4427 27.6329 16.3619C27.6758 16.3054 27.7086 16.2539 27.7309 16.2174C27.8348 16.1223 27.9052 16.0319 27.9374 15.9903L27.9447 15.9862L27.9578 15.9789C28.007 15.9514 28.1185 15.8891 28.2253 15.8093C28.333 15.729 28.423 15.6458 28.4814 15.5914L28.5204 15.5548C28.5627 15.5152 28.5844 15.4949 28.609 15.4743C28.6969 15.4005 28.8627 15.3134 29.0589 15.2541C29.1661 15.2217 29.2544 15.208 29.4098 15.2012L29.4263 15.2046L29.4366 15.2068C29.4655 15.2128 29.5169 15.2237 29.5683 15.2324C29.63 15.2429 29.7156 15.255 29.8144 15.2577C29.9338 15.261 30.011 15.2728 30.1256 15.2903C30.2057 15.3025 30.304 15.3175 30.4477 15.3343L30.4589 15.3393C30.4727 15.3455 30.4878 15.3524 30.5093 15.3624L30.513 15.3641C30.5322 15.3731 30.5573 15.3847 30.583 15.3963C30.638 15.421 30.7152 15.4544 30.8049 15.4844C30.9699 15.5397 31.1169 15.5964 31.2849 15.6613C31.3767 15.6967 31.4746 15.7345 31.5852 15.7758Z" fill="white"/>
</g>
<g id="Vector 26 (Stroke)">
<path fill-rule="evenodd" clip-rule="evenodd" d="M20.1873 8.94348C20.0523 8.87666 19.9461 8.8241 19.829 8.77501C19.7465 8.74042 19.6694 8.70367 19.6071 8.67334C19.5776 8.65898 19.5537 8.64722 19.532 8.63654C19.5002 8.62088 19.4731 8.60757 19.4401 8.59187C19.3918 8.56885 19.3567 8.55332 19.3288 8.54236C19.3021 8.53188 19.2896 8.52871 19.2896 8.52871C19.2203 8.51245 19.139 8.49481 19.0497 8.47544C18.7757 8.41602 18.4263 8.34024 18.1173 8.23774C18.0959 8.23062 18.0513 8.21977 17.9464 8.20344C17.9303 8.20093 17.91 8.19794 17.8868 8.19451C17.7993 8.18159 17.6696 8.16242 17.5573 8.13905C17.4954 8.12614 17.4358 8.11181 17.3879 8.10013C17.3744 8.09683 17.362 8.09377 17.3503 8.0909C17.3161 8.08253 17.2883 8.07569 17.2588 8.06885C17.2215 8.0602 17.1941 8.05456 17.1728 8.05086C17.1528 8.0474 17.1432 8.04662 17.1432 8.04662C16.9433 8.03408 16.735 8.00202 16.5836 7.9787C16.5523 7.97388 16.5234 7.96943 16.4975 7.9656C16.3171 7.93895 16.2115 7.92966 16.1301 7.93338C16.1268 7.93377 16.0835 7.93892 15.9752 7.98101C15.9214 8.00193 15.8628 8.02734 15.791 8.05953C15.7746 8.06688 15.7564 8.07509 15.737 8.08383C15.681 8.1091 15.6153 8.13877 15.5549 8.16475C15.4735 8.1998 15.3988 8.22806 15.3414 8.24946C15.3291 8.25405 15.3179 8.25822 15.3076 8.26207C15.2644 8.27815 15.2364 8.28859 15.2075 8.30028C15.1493 8.32378 15.135 8.33411 15.1267 8.34033C15.1001 8.36034 15.0795 8.37564 15.0608 8.38953C15.0364 8.40767 15.0153 8.42337 14.9882 8.44394C14.9482 8.47439 14.9181 8.49832 14.8937 8.51929C14.8603 8.54797 14.8467 8.56344 14.8436 8.56699C14.811 8.61876 14.7878 8.66885 14.7398 8.77273C14.7222 8.81086 14.7012 8.85625 14.6752 8.91164C14.5964 9.07927 14.466 9.34653 14.2449 9.59135C14.2425 9.59519 14.2376 9.6031 14.2307 9.61602C14.2137 9.64786 14.1927 9.69472 14.1687 9.75963C14.1258 9.8753 14.0927 9.99293 14.0533 10.1326C14.0452 10.1611 14.0369 10.1905 14.0283 10.221C14.0177 10.2582 14.0071 10.2939 13.9982 10.3241C13.9888 10.356 13.9811 10.3819 13.9741 10.4065C13.96 10.4559 13.9528 10.4855 13.9485 10.5068C13.9462 10.5186 13.9452 10.5257 13.9447 10.5294C13.9507 10.5636 13.9654 10.6187 14.0007 10.7184C14.0074 10.7373 14.0188 10.7681 14.0325 10.8053C14.0645 10.892 14.1093 11.0134 14.1376 11.0995C14.1376 11.0995 14.1413 11.1104 14.155 11.1339C14.1693 11.1585 14.1914 11.1913 14.2253 11.2351C14.2595 11.2793 14.3002 11.3274 14.3514 11.3858C14.3657 11.4021 14.3871 11.4261 14.4108 11.4529C14.4483 11.4952 14.4917 11.5441 14.5219 11.5788C14.5946 11.6625 14.6504 11.7426 14.6847 11.7929C14.7033 11.8201 14.715 11.8376 14.7237 11.8504C14.7309 11.8613 14.736 11.8688 14.7411 11.8761C14.7481 11.8833 14.7566 11.8916 14.7734 11.9082C14.778 11.9128 14.7833 11.918 14.7894 11.924C14.7914 11.9259 14.7935 11.928 14.7958 11.9303C14.8457 11.9793 14.9686 12.1 15.0702 12.2601C15.1113 12.3248 15.1407 12.3835 15.1604 12.4259C15.1692 12.4449 15.1774 12.4634 15.1842 12.4791C15.1894 12.4849 15.1956 12.4919 15.2034 12.5005L15.2073 12.5049C15.2578 12.561 15.3785 12.6953 15.4738 12.8796C15.5089 12.9476 15.5832 13.0459 15.7279 13.1841C15.8339 13.2854 15.9362 13.3711 16.0578 13.473C16.1128 13.5191 16.1716 13.5684 16.2365 13.6239C16.3427 13.7148 16.4254 13.823 16.4839 13.9407C16.6149 14.0112 16.7016 14.0606 16.764 14.0962C16.8694 14.1563 16.905 14.1766 16.9672 14.1917C17.1851 14.2445 17.3657 14.31 17.5437 14.3854C17.5554 14.387 17.5854 14.3907 17.6428 14.3931C17.671 14.3943 17.701 14.3951 17.7386 14.396L17.7492 14.3963C17.7824 14.3972 17.8223 14.3982 17.8623 14.3996C17.9504 14.4029 18.0675 14.4092 18.1936 14.4282C18.2539 14.4372 18.3275 14.4416 18.4503 14.4444C18.4665 14.4448 18.4842 14.4452 18.5032 14.4455C18.6085 14.4476 18.7544 14.4506 18.8971 14.4628C18.9199 14.4648 18.9411 14.4669 18.9588 14.4687L19.0052 14.4734C19.0115 14.4741 19.0169 14.4746 19.0217 14.4751C19.5516 14.3537 20.0703 14.1358 20.5488 13.8438C20.7919 13.6955 21.0589 13.6485 21.1619 13.6307C21.2325 13.6185 21.2996 13.6095 21.3476 13.6031L21.3686 13.6003C21.4105 13.5948 21.4297 13.5923 21.445 13.5898C21.4801 13.5841 21.5156 13.5786 21.5439 13.5743C21.5515 13.5732 21.5585 13.5721 21.5649 13.5711C21.5987 13.5659 21.6216 13.5622 21.6412 13.5587C21.6761 13.5523 21.6922 13.5477 21.705 13.5432C21.7483 13.5282 21.7872 13.5148 21.8229 13.5026C21.9452 13.4607 22.029 13.432 22.1145 13.3948C22.2124 13.3522 22.2499 13.3231 22.263 13.311C22.3245 13.2539 22.3887 13.1984 22.4388 13.1551L22.4476 13.1475C22.504 13.0987 22.5464 13.0618 22.5849 13.026C22.6466 12.9686 22.667 12.9417 22.6691 12.9394C22.7455 12.8015 22.7856 12.6763 22.7997 12.5547C22.8195 12.3828 22.8237 12.2195 22.829 12.0152C22.8314 11.9213 22.834 11.8186 22.8385 11.7025C22.8468 11.4885 22.836 11.2955 22.8035 11.1183C22.7867 11.0271 22.7545 10.9246 22.6964 10.7684C22.6867 10.7423 22.6755 10.7128 22.6633 10.6807C22.617 10.5586 22.556 10.3981 22.506 10.2366C22.4996 10.2303 22.4907 10.2217 22.4783 10.2109C22.4464 10.183 22.4026 10.1496 22.3394 10.1059C22.2951 10.0753 22.2577 10.0507 22.2132 10.0213C22.1854 10.003 22.1549 9.98287 22.1183 9.95835C22.1034 9.94838 22.0889 9.93867 22.0747 9.92919C21.8512 9.77956 21.7175 9.69005 21.5465 9.60669L20.3536 9.02534C20.2927 8.99566 20.2379 8.96857 20.1873 8.94348ZM14.1036 14.4023C14.1245 14.5829 14.1877 14.7349 14.2515 14.8448C14.3514 15.0168 14.4771 15.1335 14.5572 15.2001C14.7195 15.335 14.9045 15.4335 15.0279 15.4946C15.1641 15.5621 15.3008 15.6201 15.3974 15.6604C15.4961 15.7016 15.5249 15.7132 15.5249 15.7132C15.5408 15.722 15.561 15.7336 15.5861 15.7482C15.7566 15.8471 16.1254 16.0611 16.4927 16.15C16.5807 16.1714 16.6574 16.1979 16.7709 16.2464C17.0824 16.3798 17.3842 16.3991 17.5584 16.4064C17.6581 16.4106 17.7209 16.4119 17.7654 16.4128C17.8262 16.4141 17.8531 16.4147 17.8938 16.4208C18.0884 16.4501 18.2703 16.4558 18.4032 16.4589C18.4313 16.4596 18.4571 16.4602 18.481 16.4607C18.5849 16.4629 18.6532 16.4644 18.7243 16.4705C18.7299 16.4713 19.0768 16.525 19.3915 16.4571C20.1477 16.2938 20.8657 15.9988 21.5137 15.6149C21.54 15.6105 21.5708 15.6062 21.6119 15.6008L21.6832 15.5913C21.7081 15.5879 21.738 15.5837 21.769 15.5786C21.7816 15.5766 21.7976 15.5742 21.8165 15.5714C21.9294 15.5549 22.1459 15.5232 22.3658 15.4469C22.3894 15.4386 22.4169 15.4295 22.4478 15.4193C22.716 15.3303 23.2347 15.1582 23.6334 14.7882C23.6677 14.7564 23.7073 14.7222 23.7658 14.6716L23.7666 14.6709C23.8198 14.6248 23.8888 14.5652 23.9577 14.501C24.0899 14.378 24.2805 14.1862 24.424 13.9298C24.6139 13.5907 24.7525 13.2097 24.8014 12.7857C24.8324 12.5178 24.8401 12.2158 24.8462 11.9801C24.8481 11.9059 24.8498 11.8383 24.8521 11.7804C24.8647 11.4543 24.8505 11.1088 24.7854 10.7543C24.7356 10.4835 24.6521 10.2464 24.5851 10.0661C24.5655 10.0134 24.5479 9.96686 24.5319 9.92449C24.4864 9.8042 24.4537 9.71774 24.4246 9.61998C24.2947 9.18345 24.0236 8.88494 23.803 8.69249C23.6266 8.53863 23.4213 8.40369 23.2957 8.32118C23.2742 8.30701 23.255 8.29439 23.2387 8.28349C23.2191 8.2704 23.1992 8.25701 23.1789 8.24335C22.9744 8.106 22.7301 7.94193 22.4292 7.7953L21.2363 7.21394C21.2021 7.19724 21.1641 7.17842 21.1233 7.15821C20.975 7.08466 20.7893 6.99262 20.6081 6.91663C20.558 6.89565 20.5204 6.87705 20.463 6.8487C20.4237 6.82927 20.3751 6.80527 20.307 6.77279C20.177 6.71084 19.978 6.62044 19.7498 6.56692C19.6076 6.53354 19.4837 6.50671 19.371 6.48232C19.1371 6.43168 18.9519 6.39157 18.7519 6.3252C18.5632 6.26259 18.3804 6.23167 18.2562 6.21235C18.205 6.20437 18.1641 6.19833 18.1296 6.19322C18.0615 6.18314 18.0181 6.17671 17.9682 6.16633C17.925 6.15733 17.8975 6.15047 17.8592 6.14089C17.8253 6.13245 17.783 6.12188 17.7139 6.10587C17.6056 6.08075 17.4452 6.04654 17.2693 6.03551C17.1682 6.02917 17.0718 6.01451 16.9288 5.99276C16.8875 5.98648 16.8423 5.97961 16.792 5.97218C16.5968 5.94334 16.3271 5.90721 16.038 5.92043C15.7209 5.93492 15.443 6.02596 15.2452 6.10284C15.1214 6.15098 14.9622 6.22258 14.8543 6.27109C14.8133 6.28951 14.7797 6.30461 14.7583 6.31382C14.7243 6.32848 14.6877 6.34263 14.6365 6.36172C14.6295 6.36436 14.6218 6.36722 14.6135 6.37028C14.5694 6.38669 14.5099 6.40881 14.4524 6.43205C14.3024 6.49266 14.1148 6.58032 13.9168 6.72897C13.9045 6.73823 13.8893 6.74927 13.8718 6.76205C13.7163 6.87537 13.3736 7.12519 13.1483 7.47772C13.0316 7.6603 12.9356 7.87071 12.879 7.99468C12.8684 8.01803 12.8591 8.03832 12.8514 8.05477C12.7836 8.1991 12.7567 8.23289 12.7495 8.24076C12.502 8.51159 12.3613 8.83749 12.2789 9.06007C12.2053 9.2591 12.1469 9.46719 12.1082 9.60522C12.1017 9.62861 12.0957 9.64999 12.0903 9.66897C12.0853 9.68637 12.0787 9.70767 12.071 9.73254C12.009 9.93211 11.8757 10.3615 11.9553 10.8501C11.9901 11.0631 12.0522 11.2527 12.1015 11.3916C12.1304 11.4734 12.1506 11.5271 12.1674 11.572C12.1876 11.6257 12.203 11.6669 12.2232 11.7284C12.326 12.0412 12.4935 12.29 12.6324 12.4693C12.731 12.5966 12.852 12.7326 12.9365 12.8277C12.9606 12.8549 12.9818 12.8787 12.9986 12.898C13.0002 12.9001 13.0067 12.9088 13.0203 12.9287L13.0382 12.9551L13.0613 12.9893C13.078 13.014 13.0999 13.0458 13.1249 13.08C13.1802 13.1558 13.2353 13.2169 13.2768 13.2605C13.309 13.2943 13.3431 13.3279 13.364 13.3484C13.369 13.3598 13.3745 13.3721 13.3804 13.3847C13.4002 13.4273 13.4294 13.4854 13.4699 13.5494C13.5217 13.6315 13.5742 13.6975 13.6141 13.7449C13.6445 13.7809 13.6785 13.8185 13.6962 13.8381C13.6995 13.8417 13.7022 13.8447 13.7042 13.8469C13.7058 13.8487 13.7073 13.8504 13.7087 13.852C13.8238 14.0631 13.9637 14.2462 14.1036 14.4023ZM13.9445 10.5329L13.9446 10.5309L13.9445 10.5329Z" fill="black"/>
<path d="M19.829 8.77501C19.9461 8.8241 20.0523 8.87666 20.1873 8.94348C20.2379 8.96857 20.2927 8.99566 20.3536 9.02534L21.5465 9.60669C21.7175 9.69005 21.8512 9.77956 22.0747 9.92919L22.1183 9.95835C22.1549 9.98287 22.1854 10.003 22.2132 10.0213C22.2577 10.0507 22.2951 10.0753 22.3394 10.1059C22.4026 10.1496 22.4464 10.183 22.4783 10.2109C22.4907 10.2217 22.4996 10.2303 22.506 10.2366C22.556 10.3981 22.617 10.5586 22.6633 10.6807C22.6755 10.7128 22.6867 10.7423 22.6964 10.7684C22.7545 10.9246 22.7867 11.0271 22.8035 11.1183C22.836 11.2955 22.8468 11.4885 22.8385 11.7025C22.834 11.8186 22.8314 11.9213 22.829 12.0152C22.8237 12.2195 22.8195 12.3828 22.7997 12.5547C22.7856 12.6763 22.7455 12.8015 22.6691 12.9394C22.667 12.9417 22.6466 12.9686 22.5849 13.026C22.5464 13.0618 22.504 13.0987 22.4476 13.1475L22.4388 13.1551C22.3887 13.1984 22.3245 13.2539 22.263 13.311C22.2499 13.3231 22.2124 13.3522 22.1145 13.3948C22.029 13.432 21.9452 13.4607 21.8229 13.5026C21.7872 13.5148 21.7483 13.5282 21.705 13.5432C21.6922 13.5477 21.6761 13.5523 21.6412 13.5587C21.6216 13.5622 21.5987 13.5659 21.5649 13.5711L21.5439 13.5743C21.5156 13.5786 21.4801 13.5841 21.445 13.5898C21.4297 13.5923 21.4105 13.5948 21.3686 13.6003L21.3476 13.6031C21.2996 13.6095 21.2325 13.6185 21.1619 13.6307C21.0589 13.6485 20.7919 13.6955 20.5488 13.8438C20.0703 14.1358 19.5516 14.3537 19.0217 14.4751L19.0052 14.4734L18.9588 14.4687C18.9411 14.4669 18.9199 14.4648 18.8971 14.4628C18.7544 14.4506 18.6085 14.4476 18.5032 14.4455L18.4503 14.4444C18.3275 14.4416 18.2539 14.4372 18.1936 14.4282C18.0675 14.4092 17.9504 14.4029 17.8623 14.3996C17.8223 14.3982 17.7824 14.3972 17.7492 14.3963L17.7386 14.396C17.701 14.3951 17.671 14.3943 17.6428 14.3931C17.5854 14.3907 17.5554 14.387 17.5437 14.3854C17.3657 14.31 17.1851 14.2445 16.9672 14.1917C16.905 14.1766 16.8694 14.1563 16.764 14.0962C16.7016 14.0606 16.6149 14.0112 16.4839 13.9407C16.4254 13.823 16.3427 13.7148 16.2365 13.6239C16.1716 13.5684 16.1128 13.5191 16.0578 13.473C15.9362 13.3711 15.8339 13.2854 15.7279 13.1841C15.5832 13.0459 15.5089 12.9476 15.4738 12.8796C15.3785 12.6953 15.2578 12.561 15.2073 12.5049L15.2034 12.5005L15.1842 12.4791C15.1774 12.4634 15.1692 12.4449 15.1604 12.4259C15.1407 12.3835 15.1113 12.3248 15.0702 12.2601C14.9686 12.1 14.8457 11.9793 14.7958 11.9303L14.7894 11.924L14.7734 11.9082C14.7566 11.8916 14.7481 11.8833 14.7411 11.8761C14.736 11.8688 14.7309 11.8613 14.7237 11.8504C14.715 11.8376 14.7033 11.8201 14.6847 11.7929C14.6504 11.7426 14.5946 11.6625 14.5219 11.5788C14.4917 11.5441 14.4483 11.4952 14.4108 11.4529L14.3514 11.3858C14.3002 11.3274 14.2595 11.2793 14.2253 11.2351C14.1914 11.1913 14.1693 11.1585 14.155 11.1339C14.1413 11.1104 14.1376 11.0995 14.1376 11.0995C14.1093 11.0134 14.0645 10.892 14.0325 10.8053C14.0188 10.7681 14.0074 10.7373 14.0007 10.7184C13.9654 10.6187 13.9507 10.5636 13.9447 10.5294C13.9452 10.5257 13.9462 10.5186 13.9485 10.5068C13.9528 10.4855 13.96 10.4559 13.9741 10.4065C13.9811 10.3819 13.9888 10.356 13.9982 10.3241C14.0071 10.2939 14.0177 10.2582 14.0283 10.221L14.0533 10.1326C14.0927 9.99293 14.1258 9.8753 14.1687 9.75963C14.1927 9.69472 14.2137 9.64786 14.2307 9.61602C14.2376 9.6031 14.2425 9.59519 14.2449 9.59135C14.466 9.34653 14.5964 9.07927 14.6752 8.91164C14.7012 8.85625 14.7222 8.81086 14.7398 8.77273C14.7878 8.66885 14.811 8.61876 14.8436 8.56699C14.8467 8.56344 14.8603 8.54797 14.8937 8.51929C14.9181 8.49832 14.9482 8.47439 14.9882 8.44394C15.0153 8.42337 15.0364 8.40767 15.0608 8.38953L15.1267 8.34033C15.135 8.33411 15.1493 8.32378 15.2075 8.30028C15.2364 8.28859 15.2644 8.27815 15.3076 8.26207L15.3414 8.24946C15.3988 8.22806 15.4735 8.1998 15.5549 8.16475C15.6153 8.13877 15.681 8.1091 15.737 8.08383L15.791 8.05953C15.8628 8.02734 15.9214 8.00193 15.9752 7.98101C16.0835 7.93892 16.1268 7.93377 16.1301 7.93338C16.2115 7.92966 16.3171 7.93895 16.4975 7.9656C16.5234 7.96943 16.5523 7.97388 16.5836 7.9787C16.735 8.00202 16.9433 8.03408 17.1432 8.04662C17.1432 8.04662 17.1528 8.0474 17.1728 8.05086C17.1941 8.05456 17.2215 8.0602 17.2588 8.06885C17.2883 8.07569 17.3161 8.08253 17.3503 8.0909L17.3879 8.10013C17.4358 8.11181 17.4954 8.12614 17.5573 8.13905C17.6696 8.16242 17.7993 8.18159 17.8868 8.19451L17.9464 8.20344C18.0513 8.21977 18.0959 8.23062 18.1173 8.23774C18.4263 8.34024 18.7757 8.41602 19.0497 8.47544C19.139 8.49481 19.2203 8.51245 19.2896 8.52871C19.2896 8.52871 19.3021 8.53188 19.3288 8.54236C19.3567 8.55332 19.3918 8.56885 19.4401 8.59187C19.4731 8.60757 19.5002 8.62088 19.532 8.63654L19.6071 8.67334C19.6694 8.70367 19.7465 8.74042 19.829 8.77501Z" fill="white"/>
</g>
<path id="Vector 24 (Stroke)" fill-rule="evenodd" clip-rule="evenodd" d="M30.1032 20.2512C29.91 20.1514 29.6456 19.9859 29.4503 19.7434C29.3443 19.6117 29.2742 19.4798 29.2367 19.4075C29.2101 19.3561 29.1972 19.3301 29.1891 19.3137C29.1807 19.2968 29.1773 19.29 29.1692 19.2761C29.1488 19.241 29.1309 19.2101 29.115 19.1827C29.0299 19.0358 29.0035 18.9901 28.9557 18.9348C28.7692 18.7188 28.6341 18.4187 28.6545 18.0682C28.6733 17.7444 28.8178 17.5036 28.9348 17.3588C29.1528 17.0888 29.4426 16.9378 29.6348 16.866C29.6675 16.8538 29.7139 16.8348 29.7703 16.8117C29.9667 16.7313 30.2849 16.6011 30.5714 16.5334C31.1078 16.4066 31.598 16.4534 32.0885 16.64C32.1382 16.6589 32.1694 16.6672 32.2231 16.6817C32.2728 16.695 32.3417 16.7134 32.4623 16.7501C32.6342 16.8024 32.9349 16.9017 33.204 17.1141C33.3547 17.2329 33.4506 17.3668 33.5101 17.4682C33.5685 17.5677 33.6056 17.6598 33.6264 17.7146C33.6373 17.7435 33.6467 17.7701 33.653 17.788L33.6645 17.8206C33.8913 18.2755 33.7729 18.7176 33.7495 18.805C33.748 18.8106 33.7469 18.8147 33.7463 18.8173C33.7297 18.8887 33.7175 18.9709 33.6992 19.105C33.6983 19.1112 33.6974 19.1176 33.6965 19.1241C33.6805 19.2416 33.6583 19.4042 33.6215 19.5687C33.5821 19.7451 33.5026 20.0145 33.3741 20.2729C33.3096 20.4025 33.2161 20.5632 33.0843 20.713C32.957 20.8575 32.7378 21.0554 32.4124 21.1445C31.6466 21.3541 31.0185 21.0004 30.7559 20.8526C30.7306 20.8383 30.7086 20.8259 30.6903 20.8162C30.3902 20.6566 30.211 20.4288 30.1032 20.2512ZM33.6699 17.8353C33.6699 17.8354 33.6695 17.8345 33.6688 17.8326C33.6695 17.8343 33.6699 17.8353 33.6699 17.8353Z" fill="black"/>
<path id="Vector 25 (Stroke)" fill-rule="evenodd" clip-rule="evenodd" d="M17.337 12.8172C17.1683 12.8048 17.0004 12.7496 16.85 12.6485C16.8288 12.6343 16.7887 12.6097 16.735 12.5768C16.5104 12.4392 16.0477 12.1557 15.7288 11.8685C15.5113 11.6726 15.248 11.3864 15.096 11.0044C14.927 10.5796 14.9197 10.0919 15.1508 9.61768C15.3638 9.18063 15.6977 8.84067 16.1191 8.61603C16.1376 8.60614 16.1492 8.59948 16.1685 8.58831C16.1849 8.57885 16.2068 8.56616 16.2434 8.54555C16.303 8.51196 16.3937 8.46216 16.4992 8.41739C16.7023 8.33119 17.0837 8.21006 17.5263 8.3528C18.1361 8.54947 18.7491 8.87279 19.243 9.19378C19.2942 9.22711 19.362 9.264 19.4695 9.31839C19.487 9.32727 19.5064 9.337 19.5272 9.34745C19.6167 9.3923 19.7325 9.4504 19.8404 9.51077C20.1103 9.66187 20.5055 9.91809 20.7651 10.3808C20.9397 10.692 21.0297 11.0853 20.9664 11.4837C20.9524 11.5719 20.9325 11.6455 20.9181 11.6945C20.9126 11.7134 20.9072 11.7308 20.9029 11.7445C20.8736 12.2285 20.5526 12.5251 20.337 12.6554C20.1259 12.783 19.9094 12.8299 19.7864 12.8508C19.5276 12.8947 19.2567 12.8893 19.0956 12.8686C18.9656 12.8519 18.8004 12.8242 18.6463 12.7975C18.5762 12.839 18.5104 12.8698 18.4553 12.8924C18.3185 12.9485 18.1602 12.9899 17.9936 13.0018C17.7503 13.0192 17.5211 12.9486 17.337 12.8172ZM20.8878 11.7934C20.8877 11.7935 20.8882 11.7916 20.8894 11.7875C20.8885 11.7913 20.8879 11.7934 20.8878 11.7934Z" fill="black"/>
<path id="Vector 1315 (Stroke)" fill-rule="evenodd" clip-rule="evenodd" d="M22.8914 23.0093C22.9124 22.4574 23.3768 22.0271 23.9287 22.0481C25.3179 22.101 26.7958 22.2396 28.2293 22.7608C29.3787 23.1788 30.3809 23.8508 31.2567 24.5012C31.3775 24.5908 31.5076 24.6838 31.644 24.7812C32.2899 25.2426 33.0754 25.8038 33.6604 26.5837C33.9918 27.0255 33.9022 27.6523 33.4604 27.9837C33.0186 28.3151 32.3918 28.2255 32.0604 27.7837C31.6777 27.2735 31.1997 26.929 30.575 26.4788C30.4147 26.3633 30.2448 26.2409 30.0644 26.1069C29.2294 25.4868 28.4154 24.9566 27.5458 24.6404C26.4092 24.2271 25.1811 24.0973 23.8526 24.0467C23.3007 24.0256 22.8703 23.5612 22.8914 23.0093Z" fill="#B7FF01"/>
<path id="Vector 1316 (Stroke)" fill-rule="evenodd" clip-rule="evenodd" d="M22.4228 23.5497C22.811 23.1568 23.4441 23.1529 23.837 23.5411C24.0488 23.7503 24.2838 23.9712 24.5303 24.2029C25.2426 24.8725 26.0503 25.6319 26.6673 26.4565C26.7744 26.5997 26.8716 26.7167 26.983 26.8509C27.0498 26.9313 27.1217 27.0178 27.2039 27.1199C27.4029 27.3669 27.6221 27.6589 27.8112 28.0157C27.8372 28.0646 27.8634 28.1139 27.8897 28.1635C28.247 28.8357 28.6353 29.5663 28.9084 30.398C28.9233 30.4435 28.9416 30.4936 28.9665 30.5608C28.9688 30.5671 28.9712 30.5737 28.9737 30.5804C28.9955 30.6393 29.0224 30.7117 29.0476 30.7852C29.1031 30.947 29.1721 31.1728 29.1958 31.429L29.2051 31.534C29.2075 31.5594 29.2092 31.5731 29.2104 31.5814C29.4003 32.0937 29.1434 32.665 28.632 32.862C28.1166 33.0604 27.5379 32.8035 27.3394 32.2881C27.2363 32.0204 27.2165 31.7679 27.2072 31.6494C27.2061 31.6352 27.2052 31.623 27.2042 31.6128C27.2024 31.5929 27.1934 31.5437 27.1558 31.4342C27.139 31.3851 27.1207 31.3358 27.0975 31.2732L27.0908 31.255C27.0663 31.1889 27.0361 31.1069 27.0082 31.022C26.7905 30.3591 26.4783 29.7705 26.1043 29.0658C26.0844 29.0283 26.0644 28.9905 26.0442 28.9523C25.9422 28.76 25.8138 28.5823 25.6465 28.3747C25.6014 28.3186 25.5475 28.2536 25.4889 28.1829C25.3568 28.0234 25.2006 27.8348 25.0658 27.6546C24.5613 26.9803 23.9498 26.4053 23.2811 25.7766C23.0064 25.5183 22.722 25.2509 22.4314 24.9638C22.0385 24.5757 22.0347 23.9425 22.4228 23.5497Z" fill="#B7FF01"/>
<path id="Vector 1319 (Stroke)" fill-rule="evenodd" clip-rule="evenodd" d="M5.99704 10.3971C6.2575 9.91004 6.86345 9.7264 7.35046 9.98686C7.59932 10.12 7.87332 10.258 8.16109 10.4029C8.99546 10.8232 9.94562 11.3018 10.7345 11.8879C10.8702 11.9887 10.9892 12.0681 11.1266 12.1598C11.2094 12.2151 11.2989 12.2748 11.4027 12.3463C11.6519 12.518 11.9339 12.7266 12.2053 13.0027C12.2423 13.0402 12.2796 13.0781 12.3171 13.1161C12.8221 13.6285 13.3754 14.1899 13.848 14.8729C13.8729 14.9087 13.9021 14.9482 13.9426 15.0023C13.9464 15.0074 13.9504 15.0126 13.9544 15.018C13.9899 15.0653 14.0341 15.1243 14.0771 15.1847C14.1715 15.3173 14.2985 15.5087 14.3907 15.7422L14.4266 15.8341C14.4324 15.8487 14.4363 15.8582 14.439 15.8645C14.761 16.3011 14.676 16.9172 14.2441 17.2498C13.8065 17.5868 13.1786 17.5053 12.8416 17.0677C12.6693 16.844 12.5812 16.6109 12.5421 16.5074C12.5376 16.4952 12.5337 16.4849 12.5304 16.4765C12.5271 16.4683 12.5103 16.4323 12.4479 16.3448C12.4201 16.3056 12.3908 16.2666 12.3529 16.216L12.3421 16.2016C12.3023 16.1484 12.2523 16.0815 12.2035 16.0111C11.8328 15.4754 11.3941 15.0296 10.863 14.49C10.8354 14.4619 10.8075 14.4336 10.7793 14.405C10.6384 14.2617 10.4763 14.1368 10.268 13.9933C10.2126 13.9551 10.1463 13.9107 10.074 13.8623C9.90988 13.7524 9.71431 13.6215 9.54178 13.4933C8.90214 13.0182 8.19051 12.6596 7.40919 12.266C7.087 12.1037 6.75296 11.9354 6.40723 11.7505C5.92022 11.49 5.73657 10.8841 5.99704 10.3971Z" fill="#B7FF01"/>
<path id="Vector 1317 (Stroke)" fill-rule="evenodd" clip-rule="evenodd" d="M10.4747 9.53092C10.8818 9.15773 11.5144 9.18523 11.8876 9.59235C11.9964 9.71112 12.123 9.82461 12.29 9.96953C12.3057 9.9832 12.322 9.99727 12.3387 10.0117C12.4861 10.1393 12.6674 10.2963 12.8383 10.4695C13.4212 11.0605 13.8283 11.789 14.1411 12.3722C14.4789 13.002 14.8205 13.6195 15.1761 14.2338C15.6064 14.977 15.9096 15.821 16.1705 16.5473C16.2367 16.7316 16.3002 16.9083 16.3623 17.0739C16.5564 17.5909 16.2946 18.1674 15.7775 18.3615C15.2605 18.5556 14.684 18.2938 14.4899 17.7767C14.4058 17.5527 14.328 17.337 14.2528 17.1285C13.9996 16.4267 13.7762 15.8075 13.4453 15.2359C13.0766 14.5991 12.7245 13.9622 12.3786 13.3176C12.0643 12.7316 11.7736 12.2381 11.4144 11.874C11.3019 11.7599 11.1807 11.6548 11.0238 11.5187C11.0092 11.5061 10.9943 11.4932 10.9791 11.48C10.8121 11.3351 10.6073 11.1555 10.4132 10.9438C10.04 10.5367 10.0676 9.90411 10.4747 9.53092Z" fill="#B7FF01"/>
<path id="Vector 1318 (Stroke)" fill-rule="evenodd" clip-rule="evenodd" d="M6.591 14.6364C6.59308 14.0841 7.04247 13.6381 7.59475 13.6402C8.47067 13.6435 9.39882 13.7455 10.309 14.0756C11.3664 14.4592 12.3681 15.1668 13.1352 15.7573C14.1676 16.552 14.9067 17.4467 15.6392 18.3894C15.9781 18.8255 15.8993 19.4538 15.4632 19.7926C15.0271 20.1315 14.3988 20.0527 14.06 19.6166C13.3457 18.6974 12.7351 17.9732 11.9153 17.3421C11.1691 16.7677 10.3741 16.2268 9.62704 15.9558C9.00152 15.7289 8.31934 15.6429 7.58724 15.6402C7.03496 15.6381 6.58893 15.1887 6.591 14.6364Z" fill="#B7FF01"/>
<path id="Vector 1320 (Stroke)" fill-rule="evenodd" clip-rule="evenodd" d="M22.7912 23.3654C22.8982 22.8236 23.4241 22.471 23.966 22.578C24.9974 22.7817 26.0608 23.1247 27.0595 23.7518C28.2156 24.4778 29.2651 25.6113 30.0751 26.5601C31.141 27.8087 31.8568 29.1218 32.5725 30.5272C32.8232 31.0193 32.6274 31.6214 32.1352 31.8721C31.6431 32.1227 31.0409 31.9269 30.7903 31.4348C30.0853 30.0503 29.4573 28.9167 28.554 27.8587C27.7552 26.923 26.8733 25.9966 25.9959 25.4455C25.2637 24.9857 24.4501 24.7122 23.5785 24.5401C23.0367 24.4332 22.6842 23.9072 22.7912 23.3654Z" fill="#B7FF01"/>
</g>
</svg>
