<svg xmlns="http://www.w3.org/2000/svg" width="16" height="16" viewBox="0 0 16 16" fill="none">
    <path fill-rule="evenodd" clip-rule="evenodd"
        d="M8 2C8.78793 2 9.56815 2.15519 10.2961 2.45672C11.0241 2.75825 11.6855 3.20021 12.2426 3.75736C12.7998 4.31451 13.2417 4.97595 13.5433 5.7039C13.8448 6.43185 14 7.21207 14 8C14 8.78793 13.8448 9.56815 13.5433 10.2961C13.2417 11.0241 12.7998 11.6855 12.2426 12.2426C11.6855 12.7998 11.0241 13.2417 10.2961 13.5433C9.56815 13.8448 8.78793 14 8 14C6.4087 14 4.88258 13.3679 3.75736 12.2426C2.63214 11.1174 2 9.5913 2 8C2 6.4087 2.63214 4.88258 3.75736 3.75736C4.88258 2.63214 6.4087 2 8 2ZM8.47133 10.4713L10.4713 8.47133C10.5928 8.3456 10.66 8.1772 10.6584 8.0024C10.6569 7.8276 10.5868 7.66039 10.4632 7.53679C10.3396 7.41318 10.1724 7.34307 9.9976 7.34155C9.8228 7.34003 9.6544 7.40723 9.52867 7.52867L8.66667 8.39067V6C8.66667 5.82319 8.59643 5.65362 8.4714 5.5286C8.34638 5.40357 8.17681 5.33333 8 5.33333C7.82319 5.33333 7.65362 5.40357 7.5286 5.5286C7.40357 5.65362 7.33333 5.82319 7.33333 6V8.39067L6.47133 7.52867C6.3456 7.40723 6.1772 7.34003 6.0024 7.34155C5.8276 7.34307 5.66039 7.41318 5.53679 7.53679C5.41318 7.66039 5.34307 7.8276 5.34155 8.0024C5.34003 8.1772 5.40723 8.3456 5.52867 8.47133L7.52867 10.4713C7.65369 10.5963 7.82322 10.6665 8 10.6665C8.17678 10.6665 8.34631 10.5963 8.47133 10.4713Z"
        fill="#FFFFFF" />
</svg>