<svg xmlns="http://www.w3.org/2000/svg" width="20" height="20" viewBox="0 0 20 20" fill="none">
    <path fill-rule="evenodd" clip-rule="evenodd"
        d="M8.33735 1.86813C8.5733 2.07103 8.67653 2.3885 8.60506 2.69138C8.10981 4.78994 7.93069 7.44912 8.98321 9.3034C9.48904 10.1946 10.2962 10.9323 11.5865 11.3486C12.8999 11.7724 14.7549 11.8751 17.3455 11.3869C17.6446 11.3305 17.9507 11.4417 18.1439 11.677C18.337 11.9122 18.3866 12.2341 18.2731 12.5165C17.0149 15.6477 14.2211 18.3333 10.4415 18.3333C8.11423 18.3333 5.88227 17.4088 4.23664 15.7632C2.59101 14.1175 1.6665 11.8856 1.6665 9.55831C1.6665 5.77871 4.3521 2.98493 7.48329 1.72673C7.77205 1.6107 8.1014 1.66523 8.33735 1.86813Z"
        fill="#FFFFFF" fill-opacity="1" />
</svg>