<svg xmlns="http://www.w3.org/2000/svg" width="20" height="20" viewBox="0 0 20 20" fill="none">
    <path fill-rule="evenodd" clip-rule="evenodd"
        d="M10.8332 2.49996C10.8332 2.27895 10.7454 2.06698 10.5891 1.9107C10.4328 1.75442 10.2209 1.66663 9.99984 1.66663C9.77882 1.66663 9.56686 1.75442 9.41058 1.9107C9.2543 2.06698 9.1665 2.27895 9.1665 2.49996V3.33329C9.1665 3.55431 9.2543 3.76627 9.41058 3.92255C9.56686 4.07883 9.77882 4.16663 9.99984 4.16663C10.2209 4.16663 10.4328 4.07883 10.5891 3.92255C10.7454 3.76627 10.8332 3.55431 10.8332 3.33329V2.49996ZM4.75567 3.57746C4.5985 3.42566 4.388 3.34167 4.1695 3.34356C3.95101 3.34546 3.742 3.4331 3.58749 3.58761C3.43298 3.74212 3.34534 3.95113 3.34344 4.16962C3.34154 4.38812 3.42554 4.59862 3.57734 4.75579L4.41067 5.58913C4.56784 5.74092 4.77834 5.82492 4.99684 5.82302C5.21534 5.82112 5.42435 5.73348 5.57885 5.57897C5.73336 5.42447 5.821 5.21546 5.8229 4.99696C5.8248 4.77846 5.7408 4.56796 5.589 4.41079L4.75567 3.57746ZM16.4223 3.57746C16.2661 3.42123 16.0541 3.33347 15.8332 3.33347C15.6122 3.33347 15.4003 3.42123 15.244 3.57746L14.4107 4.41079C14.2589 4.56796 14.1749 4.77846 14.1768 4.99696C14.1787 5.21546 14.2663 5.42447 14.4208 5.57897C14.5753 5.73348 14.7843 5.82112 15.0028 5.82302C15.2213 5.82492 15.4318 5.74092 15.589 5.58913L16.4223 4.75579C16.5786 4.59952 16.6663 4.3876 16.6663 4.16663C16.6663 3.94566 16.5786 3.73373 16.4223 3.57746ZM9.99984 5.83329C8.89477 5.83329 7.83496 6.27228 7.05356 7.05368C6.27216 7.83508 5.83317 8.89489 5.83317 9.99996C5.83317 11.105 6.27216 12.1648 7.05356 12.9462C7.83496 13.7276 8.89477 14.1666 9.99984 14.1666C11.1049 14.1666 12.1647 13.7276 12.9461 12.9462C13.7275 12.1648 14.1665 11.105 14.1665 9.99996C14.1665 8.89489 13.7275 7.83508 12.9461 7.05368C12.1647 6.27228 11.1049 5.83329 9.99984 5.83329ZM2.49984 9.16663C2.27882 9.16663 2.06686 9.25442 1.91058 9.4107C1.7543 9.56698 1.6665 9.77894 1.6665 9.99996C1.6665 10.221 1.7543 10.4329 1.91058 10.5892C2.06686 10.7455 2.27882 10.8333 2.49984 10.8333H3.33317C3.55418 10.8333 3.76615 10.7455 3.92243 10.5892C4.07871 10.4329 4.1665 10.221 4.1665 9.99996C4.1665 9.77894 4.07871 9.56698 3.92243 9.4107C3.76615 9.25442 3.55418 9.16663 3.33317 9.16663H2.49984ZM16.6665 9.16663C16.4455 9.16663 16.2335 9.25442 16.0772 9.4107C15.921 9.56698 15.8332 9.77894 15.8332 9.99996C15.8332 10.221 15.921 10.4329 16.0772 10.5892C16.2335 10.7455 16.4455 10.8333 16.6665 10.8333H17.4998C17.7208 10.8333 17.9328 10.7455 18.0891 10.5892C18.2454 10.4329 18.3332 10.221 18.3332 9.99996C18.3332 9.77894 18.2454 9.56698 18.0891 9.4107C17.9328 9.25442 17.7208 9.16663 17.4998 9.16663H16.6665ZM5.589 15.5891C5.6686 15.5123 5.73208 15.4203 5.77575 15.3186C5.81943 15.217 5.84242 15.1076 5.84338 14.997C5.84434 14.8863 5.82326 14.7766 5.78136 14.6742C5.73945 14.5718 5.67758 14.4787 5.59933 14.4005C5.52109 14.3222 5.42805 14.2603 5.32563 14.2184C5.22322 14.1765 5.11349 14.1555 5.00284 14.1564C4.89219 14.1574 4.78284 14.1804 4.68117 14.224C4.5795 14.2677 4.48754 14.3312 4.41067 14.4108L3.57734 15.2441C3.49775 15.321 3.43426 15.413 3.39059 15.5146C3.34691 15.6163 3.32392 15.7256 3.32296 15.8363C3.322 15.9469 3.34308 16.0567 3.38499 16.1591C3.42689 16.2615 3.48876 16.3545 3.56701 16.4328C3.64525 16.511 3.7383 16.5729 3.84071 16.6148C3.94312 16.6567 4.05286 16.6778 4.1635 16.6768C4.27415 16.6759 4.3835 16.6529 4.48517 16.6092C4.58684 16.5655 4.6788 16.5021 4.75567 16.4225L5.589 15.5891ZM15.589 14.4108C15.4318 14.259 15.2213 14.175 15.0028 14.1769C14.7843 14.1788 14.5753 14.2664 14.4208 14.4209C14.2663 14.5754 14.1787 14.7845 14.1768 15.003C14.1749 15.2215 14.2589 15.432 14.4107 15.5891L15.244 16.4225C15.4012 16.5743 15.6117 16.6583 15.8302 16.6564C16.0487 16.6545 16.2577 16.5668 16.4122 16.4123C16.5667 16.2578 16.6543 16.0488 16.6562 15.8303C16.6581 15.6118 16.5741 15.4013 16.4223 15.2441L15.589 14.4108ZM10.8332 16.6666C10.8332 16.4456 10.7454 16.2336 10.5891 16.0774C10.4328 15.9211 10.2209 15.8333 9.99984 15.8333C9.77882 15.8333 9.56686 15.9211 9.41058 16.0774C9.2543 16.2336 9.1665 16.4456 9.1665 16.6666V17.5C9.1665 17.721 9.2543 17.9329 9.41058 18.0892C9.56686 18.2455 9.77882 18.3333 9.99984 18.3333C10.2209 18.3333 10.4328 18.2455 10.5891 18.0892C10.7454 17.9329 10.8332 17.721 10.8332 17.5V16.6666Z"
        fill="#FFFFFF" fill-opacity="1" />
</svg>