<svg xmlns="http://www.w3.org/2000/svg" width="16" height="16" viewBox="0 0 16 16" fill="none">
    <path fill-rule="evenodd" clip-rule="evenodd"
        d="M10.9867 9.3335H13.6667C14.1087 9.3335 14.5326 9.1579 14.8452 8.84534C15.1577 8.53278 15.3333 8.10886 15.3333 7.66683C15.3333 7.2248 15.1577 6.80088 14.8452 6.48832C14.5326 6.17576 14.1087 6.00016 13.6667 6.00016H4.412C4.28823 6.0001 4.16692 5.96557 4.06165 5.90046C3.95639 5.83535 3.87133 5.74222 3.816 5.6315L3.51734 5.0355C3.46201 4.92478 3.37695 4.83164 3.27169 4.76653C3.16642 4.70142 3.04511 4.6669 2.92134 4.66683H1.678C1.56763 4.66673 1.45895 4.69404 1.36173 4.7463C1.26451 4.79857 1.18179 4.87416 1.121 4.96628C1.0602 5.0584 1.02322 5.16418 1.01339 5.27412C1.00356 5.38405 1.02118 5.49471 1.06467 5.59616L2.49334 8.9295C2.54478 9.0495 2.63032 9.15175 2.73935 9.22357C2.84839 9.29539 2.97611 9.33361 3.10667 9.3335H5.682C5.79089 9.33356 5.8981 9.3603 5.99427 9.41137C6.09044 9.46245 6.17263 9.5363 6.23367 9.62647C6.2947 9.71664 6.33272 9.82039 6.3444 9.92865C6.35608 10.0369 6.34107 10.1464 6.30067 10.2475L5.7 11.7535C5.65977 11.8545 5.64485 11.9639 5.65657 12.072C5.66828 12.1801 5.70627 12.2837 5.76721 12.3738C5.82815 12.4638 5.9102 12.5376 6.00621 12.5887C6.10221 12.6398 6.20926 12.6666 6.318 12.6668H7.67934C7.77931 12.6669 7.87802 12.6444 7.96815 12.6011C8.05828 12.5579 8.13752 12.4949 8.2 12.4168L10.4667 9.5835C10.5291 9.50554 10.6082 9.4426 10.6982 9.39933C10.7882 9.35606 10.8868 9.33356 10.9867 9.3335ZM6.33334 5.3335H9.5L8.2 3.60016C8.1379 3.51737 8.05738 3.45016 7.96481 3.40388C7.87224 3.35759 7.77017 3.3335 7.66667 3.3335H6.412C6.29841 3.33356 6.18671 3.36264 6.08752 3.41799C5.98832 3.47334 5.90491 3.55312 5.84521 3.64976C5.7855 3.7464 5.75148 3.85669 5.74637 3.97017C5.74126 4.08365 5.76523 4.19655 5.816 4.29816L6.33334 5.3335Z"
        fill="#FFFFFF" fill-opacity="1" />
</svg>