<svg xmlns="http://www.w3.org/2000/svg" width="20" height="20" viewBox="0 0 20 20" fill="none">
  <path fill-rule="evenodd" clip-rule="evenodd" d="M6.66667 2.49984C6.66667 2.27882 6.75446 2.06686 6.91074 1.91058C7.06702 1.7543 7.27899 1.6665 7.5 1.6665H12.5C12.721 1.6665 12.933 1.7543 13.0893 1.91058C13.2455 2.06686 13.3333 2.27882 13.3333 2.49984C13.3333 2.72085 13.2455 2.93281 13.0893 3.08909C12.933 3.24537 12.721 3.33317 12.5 3.33317H7.5C7.27899 3.33317 7.06702 3.24537 6.91074 3.08909C6.75446 2.93281 6.66667 2.72085 6.66667 2.49984ZM2.5 11.6665C2.49988 10.2541 2.89859 8.87034 3.65024 7.67454C4.4019 6.47874 5.47594 5.51949 6.74875 4.90721C8.02155 4.29492 9.44138 4.05449 10.8448 4.21359C12.2482 4.37268 13.5782 4.92484 14.6817 5.8065L15.2442 5.244C15.321 5.16441 15.413 5.10093 15.5147 5.05725C15.6163 5.01358 15.7257 4.99059 15.8363 4.98963C15.947 4.98867 16.0567 5.00975 16.1591 5.05165C16.2615 5.09355 16.3546 5.15543 16.4328 5.23367C16.5111 5.31192 16.573 5.40496 16.6149 5.50738C16.6568 5.60979 16.6778 5.71952 16.6769 5.83017C16.6759 5.94082 16.6529 6.05017 16.6093 6.15184C16.5656 6.25351 16.5021 6.34546 16.4225 6.42234L15.86 6.98484C16.6077 7.92089 17.1203 9.02244 17.3548 10.1973C17.5894 11.3721 17.5391 12.586 17.2082 13.7374C16.8772 14.8889 16.2753 15.9442 15.4527 16.8152C14.6302 17.6862 13.6109 18.3475 12.4803 18.7437C11.3497 19.1399 10.1406 19.2595 8.9543 19.0924C7.76798 18.9254 6.63894 18.4766 5.66168 17.7836C4.68443 17.0906 3.8874 16.1736 3.33733 15.1094C2.78725 14.0451 2.50013 12.8645 2.5 11.6665ZM10.8333 8.33317C10.8333 8.11216 10.7455 7.9002 10.5893 7.74392C10.433 7.58763 10.221 7.49984 10 7.49984C9.77899 7.49984 9.56702 7.58763 9.41074 7.74392C9.25446 7.9002 9.16667 8.11216 9.16667 8.33317V11.6665C9.16667 11.8875 9.25446 12.0995 9.41074 12.2558C9.56702 12.412 9.77899 12.4998 10 12.4998C10.221 12.4998 10.433 12.412 10.5893 12.2558C10.7455 12.0995 10.8333 11.8875 10.8333 11.6665V8.33317Z" fill="#A7DC22"/>
</svg>