<svg xmlns="http://www.w3.org/2000/svg" width="16" height="16" viewBox="0 0 16 16" fill="none">
    <path fill-rule="evenodd" clip-rule="evenodd"
        d="M3.35551 7.49527L4.39712 6.45593L3.61114 5.68208C3.09437 5.10768 3.11717 4.21856 3.6595 3.67369C4.20576 3.12498 5.10171 3.10371 5.67559 3.62929L9.53499 7.47302L10.5679 6.44028L6.68309 2.55176C5.57003 1.54697 3.88683 1.52659 2.78792 2.46582C1.62277 3.46165 1.42915 5.26705 2.40078 6.52986L3.35551 7.49527ZM8.51912 3.35004L9.55346 4.39657L10.3284 3.6119C10.9035 3.09607 11.7912 3.12186 12.3334 3.66673C12.8796 4.21564 12.8979 5.11312 12.3713 5.68615L8.52148 9.53943L9.54913 10.5773L13.444 6.69871C14.4507 5.58712 14.4765 3.90131 13.5423 2.79759C12.5518 1.62742 10.7499 1.42769 9.48603 2.39684L8.51912 3.35004ZM7.48093 12.6498L6.4466 11.6033L5.67153 12.388C5.09648 12.9038 4.20878 12.878 3.66655 12.3332C3.12039 11.7843 3.10201 10.8868 3.62861 10.3137L7.47867 6.46046L6.45092 5.4226L2.55604 9.30117C1.54933 10.4128 1.52358 12.0986 2.45776 13.2023C3.44816 14.3725 5.25019 14.5722 6.51402 13.603L7.48093 12.6498ZM11.5893 9.54489L12.6308 8.50555L13.5856 9.47096C14.5572 10.7338 14.3636 12.5392 13.1984 13.535C12.0995 14.4742 10.4163 14.4538 9.30326 13.4491L5.41841 9.56044L6.45127 8.5277L10.3107 12.3714C10.8845 12.897 11.7805 12.8757 12.3268 12.327C12.8691 11.7822 12.8919 10.893 12.3751 10.3186L11.5893 9.54489Z"
        fill="#FFFFFF" fill-opacity="1" />
</svg>